<svg width="21" height="22" viewBox="0 0 21 22" fill="none" xmlns="http://www.w3.org/2000/svg">
<path d="M6.7008 13.3186C6.40058 13.934 6.27299 14.4493 6.26482 14.483C6.22044 14.6662 6.29986 14.8556 6.45884 14.9532C6.54586 15.0066 8.60994 16.2529 10.3237 15.5457C10.4609 15.489 10.5947 15.427 10.7246 15.3602C9.26317 14.9955 7.89345 14.2293 6.7008 13.3186Z" fill="#78C0DE"/>
<path d="M6.73891 7.74815C6.74223 7.75078 6.8906 7.87091 7.08711 8.06436C8.68377 6.92709 10.5585 6.07952 12.5195 6.07954C12.9522 6.07946 13.3884 6.10548 13.8265 6.15684C13.6021 5.75344 13.2287 5.33244 12.6282 4.93216C11.4501 4.14676 9.92973 4.74434 8.73502 5.49657C7.60667 6.20701 6.73995 7.06892 6.70362 7.10525C6.5228 7.28607 6.53729 7.58565 6.73891 7.74815Z" fill="#78C0DE"/>
<path d="M5.5129 12.3129C5.3307 12.1419 5.06916 11.8856 4.90206 11.6988C4.46086 11.2058 4.46082 10.4623 4.9025 9.96877C5.01685 9.84122 5.24555 9.60596 5.51286 9.35515C5.04387 9.00011 4.46799 8.45361 3.92549 7.63978C3.77442 7.41333 3.4533 7.38081 3.2602 7.57391C2.61522 8.21888 2.2604 8.9963 2.28669 9.70676C2.3144 10.455 2.31442 11.2136 2.28671 11.9613C2.2604 12.6718 2.61522 13.4492 3.2602 14.0941C3.45297 14.2869 3.7743 14.2551 3.92547 14.0282C4.46801 13.2145 5.04391 12.6679 5.5129 12.3129Z" fill="#78C0DE"/>
<path d="M15.3494 14.0807C14.0412 12.576 14.0386 9.10293 15.3459 7.5913C15.361 7.57384 15.3516 7.584 15.5494 7.38612C14.5327 7.09279 13.5149 6.94386 12.5197 6.94404C10.3065 6.944 8.14248 8.19517 6.49102 9.63574C6.07717 9.99694 5.71758 10.3545 5.5461 10.5458C5.39923 10.7099 5.39923 10.9582 5.54612 11.1223C5.91408 11.5337 6.67693 12.2391 7.49769 12.8345C8.75261 13.7438 10.202 14.4772 11.7327 14.6727C11.7396 14.6665 12.0088 14.7176 12.5485 14.7238C13.5305 14.721 14.5439 14.5747 15.5311 14.2904L15.3494 14.0807Z" fill="#78C0DE"/>
<path d="M19.8428 11.81C20.0469 11.5527 20.2308 11.221 20.2548 10.8904C20.3085 10.164 19.5008 9.42023 18.914 8.98753C18.185 8.4499 17.3081 8.00833 16.4673 7.69102L15.9903 8.16804C14.9742 9.36296 14.9818 12.3401 16.0024 13.5141L16.4212 13.9973C17.5852 13.5637 19.0793 12.7852 19.8428 11.81ZM16.7025 10.4705C16.6337 10.2515 16.7549 10.0033 16.9902 9.9318C17.2132 9.85772 17.4845 9.9944 17.5396 10.2607C17.5616 10.3685 17.5408 10.4849 17.4752 10.5851C17.2637 10.8938 16.8053 10.811 16.7025 10.4705Z" fill="#78C0DE"/>
</svg>
